# xmcd
#
# Track frame offsets:
#	150
#	13226
#	26790
#	39127
#	57694
#	73559
#	86921
#	99609
#	111825
#	125240
#	134314
#	152004
#	167123
#	181227
#	194714
#	205804
#	216362
#	229146
#	240470
#	252402
#	261424
#	276137
#	287230
#	295407
#
# Disc length: 4095 seconds
#
# Revision: 1
# Processed by: cddbd v1.5.2PL0 Copyright (c) Steve Scherf et al.
# Submitted via: audiograbber 1.83.01
#
DISCID=800ffd18
DTITLE=johnnie ray - till morning (1958) on the trail (1959)
DYEAR=2014
DGENRE=vocal
TTITLE0=it all depends on you
TTITLE1=my ideal
TTITLE2=too marvellous for words
TTITLE3=i'm confessin'
TTITLE4=teach me tonight
TTITLE5=nevertheless (i'm in love with you)
TTITLE6=all through the night
TTITLE7=hands across the table
TTITLE8=they can't take that away from me
TTITLE9=day by day
TTITLE10=i can't escape from you
TTITLE11=i'm beginnings to see the light
TTITLE12=wagon wheels
TTITLE13=empty saddles
TTITLE14=tumbling tumbleweeds
TTITLE15=the last round-up
TTITLE16=home on the range
TTITLE17=bury me out on the lone prairie
TTITLE18=(when it's) springtime in the rockies
TTITLE19=ridin' home
TTITLE20=twilight on the trail
TTITLE21=red river valley
TTITLE22=i'm an old cowhand
TTITLE23=cool water
EXTD=
EXTT0=
EXTT1=
EXTT2=
EXTT3=
EXTT4=
EXTT5=
EXTT6=
EXTT7=
EXTT8=
EXTT9=
EXTT10=
EXTT11=
EXTT12=
EXTT13=
EXTT14=
EXTT15=
EXTT16=
EXTT17=
EXTT18=
EXTT19=
EXTT20=
EXTT21=
EXTT22=
EXTT23=
PLAYORDER=
